<svg xmlns="http://www.w3.org/2000/svg" xmlns:xlink="http://www.w3.org/1999/xlink" width="50" zoomAndPan="magnify" viewBox="0 0 37.5 37.499999" height="50" preserveAspectRatio="xMidYMid meet" version="1.0"><defs><clipPath id="bd873a541d"><path d="M 0.679688 3.613281 L 19 3.613281 L 19 33.613281 L 0.679688 33.613281 Z M 0.679688 3.613281 " clip-rule="nonzero"/></clipPath><clipPath id="30df683197"><path d="M 18 3.613281 L 36.679688 3.613281 L 36.679688 33.613281 L 18 33.613281 Z M 18 3.613281 " clip-rule="nonzero"/></clipPath></defs><g clip-path="url(#bd873a541d)"><path fill="#88dfd6" d="M 13.917969 4.429688 C 13.640625 3.933594 13.109375 3.625 12.535156 3.625 C 11.960938 3.625 11.433594 3.933594 11.15625 4.429688 L 0.832031 23.007812 C 0.351562 23.960938 1.070312 25.035156 2.152344 25.035156 L 9.117188 25.035156 L 9.117188 32.058594 C 9.117188 32.773438 9.714844 33.371094 10.433594 33.371094 L 14.515625 33.371094 C 15.238281 33.371094 15.835938 32.773438 15.835938 32.058594 L 15.835938 25.035156 L 13.917969 25.035156 C 13.140625 25.042969 12.476562 24.484375 12.355469 23.722656 C 12.355469 23.484375 12.355469 23.246094 12.476562 23.007812 L 18.238281 12.648438 Z M 13.917969 4.429688 " fill-opacity="1" fill-rule="nonzero"/></g><g clip-path="url(#30df683197)"><path fill="#62b8af" d="M 23.027344 4.429688 C 23.304688 3.933594 23.832031 3.628906 24.40625 3.628906 C 24.980469 3.628906 25.507812 3.933594 25.785156 4.429688 L 36.109375 23.007812 C 36.589844 23.960938 35.871094 25.035156 34.789062 25.035156 L 27.949219 25.035156 L 27.949219 32.058594 C 27.949219 32.773438 27.347656 33.371094 26.625 33.371094 L 22.304688 33.371094 C 21.578125 33.363281 20.988281 32.78125 20.984375 32.058594 L 20.984375 25.035156 L 22.90625 25.035156 C 23.679688 25.042969 24.347656 24.484375 24.464844 23.722656 C 24.464844 23.484375 24.464844 23.246094 24.34375 23.007812 L 18.582031 12.648438 Z M 23.027344 4.429688 " fill-opacity="1" fill-rule="nonzero"/></g></svg>